<svg width="52" height="67" viewBox="0 0 52 67" fill="none" xmlns="http://www.w3.org/2000/svg">
<path d="M19.387 10.2559L24.3779 3H27.0398L29.0362 4.77178L31.0325 7.8935L34.1103 12.1964L36.4394 16.2462L40.5154 20.296L42.7613 25.8645L45.5063 29.4924L47.3363 34.639L49 39.7012V45.1853L47.3363 52.0194L44.1754 55.4786L40.5154 59.1065L35.4412 62.6501L31.0325 64H24.3779L19.387 62.6501H15.9765L13.5642 61.722L9.73779 58.0941L6.66004 55.4786L4.49729 52.0194L3 49.3195V46.4509V44.1729V41.8105C3.41591 40.8543 4.29765 38.7394 4.49729 37.9295C4.69693 37.1195 6.0223 35.3983 6.66004 34.639L7.49186 31.3485L8.24051 28.7331L9.73779 25.8645L11.0687 22.9115L13.5642 19.4523L19.387 10.2559Z" stroke="#454545" stroke-width="6"/>
</svg>
