<svg width="30" height="42" viewBox="0 0 30 42" fill="none" xmlns="http://www.w3.org/2000/svg">
<path d="M11.2622 6.52006L14.0832 2H15.5877L16.7161 3.10373L17.8445 5.04841L19.5841 7.72891L20.9005 10.2517L23.2043 12.7746L24.4738 16.2434L26.0253 18.5035L27.0597 21.7095L28 24.8631V28.2794L27.0597 32.5367L25.2731 34.6916L23.2043 36.9516L20.3363 39.1591L17.8445 40H14.0832L11.2622 39.1591H9.33454L7.97107 38.5809L5.80832 36.3209L4.06872 34.6916L2.84629 32.5367L2 30.8548V29.0678V27.6487V26.177C2.23508 25.5814 2.73345 24.2639 2.84629 23.7593C2.95913 23.2548 3.70826 22.1826 4.06872 21.7095L4.53888 19.6598L4.96203 18.0304L5.80832 16.2434L6.56058 14.4039L7.97107 12.249L11.2622 6.52006Z" stroke="black" stroke-width="3"/>
</svg>
