<svg width="139" height="182" viewBox="0 0 139 182" fill="none" xmlns="http://www.w3.org/2000/svg">
<path d="M50.4178 24.085L64.8598 3.17938H72.5621L78.3389 8.28423L84.1157 17.2785L93.0216 29.676L99.7612 41.3442L111.555 53.0124L118.054 69.0563L125.997 79.509L131.293 94.3374L136.107 108.923V124.723L131.293 144.414L122.146 154.38L111.555 164.833L96.8728 175.043L84.1157 178.932H64.8598L50.4178 175.043H40.5491L33.5688 172.369L22.4967 161.916L13.5908 154.38L7.33259 144.414L3 136.635V128.37V121.806V115C4.2035 112.245 6.75491 106.151 7.33259 103.818C7.91027 101.484 11.7454 96.5252 13.5908 94.3374L15.9978 84.857L18.1641 77.3212L22.4967 69.0563L26.3478 60.5482L33.5688 50.5816L50.4178 24.085Z" fill="url(#paint0_linear_29_61)" stroke="#C9892C" stroke-width="5.1692"/>
<defs>
<linearGradient id="paint0_linear_29_61" x1="24.9691" y1="103.333" x2="124.476" y2="114.317" gradientUnits="userSpaceOnUse">
<stop stop-color="#DD9F48"/>
<stop offset="1" stop-color="#F9CD8F"/>
</linearGradient>
</defs>
</svg>
