<svg width="32" height="32" viewBox="0 0 32 32" fill="none" xmlns="http://www.w3.org/2000/svg">
<path d="M16 12.19C15.2465 12.1903 14.51 12.414 13.8837 12.8328C13.2573 13.2516 12.7692 13.8468 12.481 14.543C12.1929 15.2392 12.1176 16.0052 12.2648 16.7442C12.412 17.4831 12.775 18.1619 13.3079 18.6946C13.8408 19.2273 14.5196 19.59 15.2587 19.7369C15.9977 19.8838 16.7637 19.8083 17.4598 19.5198C18.1559 19.2314 18.7508 18.7431 19.1694 18.1166C19.588 17.4901 19.8114 16.7535 19.8114 16C19.8107 14.9895 19.4088 14.0206 18.6942 13.3063C17.9795 12.5919 17.0105 12.1904 16 12.19ZM24.9079 9.26143C24.7139 8.76989 24.421 8.32344 24.0474 7.94979C23.6737 7.57614 23.2273 7.28325 22.7357 7.08929C21.2357 6.49714 17.6643 6.63 16 6.63C14.3357 6.63 10.7679 6.49214 9.26357 7.08929C8.77203 7.28325 8.32559 7.57614 7.95193 7.94979C7.57828 8.32344 7.28539 8.76989 7.09143 9.26143C6.5 10.7614 6.63214 14.3364 6.63214 15.9993C6.63214 17.6621 6.5 21.2329 7.09429 22.7379C7.28825 23.2294 7.58114 23.6758 7.95479 24.0495C8.32844 24.4232 8.77489 24.716 9.26643 24.91C10.7664 25.5021 14.3379 25.3693 16.0029 25.3693C17.6679 25.3693 21.2343 25.5071 22.7386 24.91C23.2301 24.716 23.6766 24.4232 24.0502 24.0495C24.4239 23.6758 24.7168 23.2294 24.9107 22.7379C25.5071 21.2379 25.37 17.6629 25.37 16C25.37 14.3371 25.5071 10.7671 24.9107 9.26214L24.9079 9.26143ZM16 21.8571C14.8416 21.8571 13.7091 21.5136 12.7459 20.87C11.7827 20.2264 11.032 19.3117 10.5887 18.2414C10.1454 17.1712 10.0294 15.9935 10.2554 14.8573C10.4814 13.7212 11.0392 12.6775 11.8584 11.8584C12.6775 11.0392 13.7212 10.4814 14.8573 10.2554C15.9935 10.0294 17.1712 10.1454 18.2414 10.5887C19.3117 11.032 20.2264 11.7827 20.87 12.7459C21.5136 13.7091 21.8571 14.8416 21.8571 16C21.8581 16.7694 21.7072 17.5315 21.4132 18.2425C21.1192 18.9536 20.6878 19.5997 20.1437 20.1437C19.5997 20.6878 18.9536 21.1192 18.2425 21.4132C17.5315 21.7072 16.7694 21.8581 16 21.8571ZM22.0986 11.2643C21.8281 11.2644 21.5638 11.1844 21.3388 11.0342C21.1139 10.8841 20.9386 10.6706 20.835 10.4208C20.7314 10.171 20.7042 9.89611 20.7569 9.63087C20.8096 9.36562 20.9397 9.12195 21.1309 8.93068C21.3221 8.73941 21.5657 8.60913 21.8309 8.55632C22.0961 8.50351 22.371 8.53055 22.6209 8.634C22.8707 8.73745 23.0843 8.91268 23.2345 9.13753C23.3848 9.36237 23.465 9.62672 23.465 9.89714C23.4658 10.0767 23.431 10.2547 23.3629 10.4208C23.2947 10.587 23.1944 10.738 23.0677 10.8653C22.941 10.9926 22.7904 11.0936 22.6246 11.1625C22.4588 11.2315 22.281 11.2671 22.1014 11.2671L22.0986 11.2643ZM28.5714 0H3.42857C2.51926 0 1.64719 0.361224 1.00421 1.00421C0.361223 1.64719 0 2.51926 0 3.42857L0 28.5714C0 29.4807 0.361223 30.3528 1.00421 30.9958C1.64719 31.6388 2.51926 32 3.42857 32H28.5714C29.4807 32 30.3528 31.6388 30.9958 30.9958C31.6388 30.3528 32 29.4807 32 28.5714V3.42857C32 2.51926 31.6388 1.64719 30.9958 1.00421C30.3528 0.361224 29.4807 0 28.5714 0ZM27.3486 20.7143C27.2564 22.545 26.8386 24.1671 25.5021 25.5C24.1657 26.8329 22.545 27.2593 20.7164 27.3464C18.83 27.4529 13.1743 27.4529 11.2879 27.3464C9.45714 27.2543 7.84071 26.8357 6.50214 25.5C5.16357 24.1643 4.74286 22.5414 4.65571 20.7143C4.54929 18.8271 4.54929 13.1707 4.65571 11.2857C4.74786 9.455 5.16071 7.83286 6.50214 6.5C7.84357 5.16714 9.46429 4.74571 11.2879 4.65857C13.1743 4.55214 18.83 4.55214 20.7164 4.65857C22.5471 4.75071 24.1686 5.16929 25.5021 6.505C26.8357 7.84071 27.2614 9.46357 27.3486 11.2943C27.455 13.1743 27.455 18.8257 27.3486 20.7143Z" fill="#EAA940"/>
</svg>
