<svg width="339" height="94" viewBox="0 0 339 94" fill="none" xmlns="http://www.w3.org/2000/svg">
<path d="M27.1555 14.2296L34.208 4H37.9693L40.7902 6.49793L43.6112 10.899L47.9602 16.9654L51.2514 22.675L57.0108 28.3845L60.1844 36.2351L64.0633 41.3499L66.6492 48.6058L69 55.7427V63.4744L66.6492 73.1093L62.1826 77.9862L57.0108 83.101L49.8409 88.0968L43.6112 90H34.208L27.1555 88.0968H22.3363L18.9277 86.7884L13.5208 81.6736L9.17179 77.9862L6.11573 73.1093L4 69.3029V65.2586V62.047V58.7165C4.5877 57.3684 5.83363 54.3867 6.11573 53.2448C6.39783 52.1029 8.27065 49.6763 9.17179 48.6058L10.3472 43.9668L11.4051 40.2794L13.5208 36.2351L15.4014 32.0719L18.9277 27.195L27.1555 14.2296Z" stroke="black" stroke-width="8"/>
<path d="M90.584 54.104C90.584 50.776 91.304 47.816 92.744 45.224C94.184 42.6 96.184 40.568 98.744 39.128C101.336 37.656 104.264 36.92 107.528 36.92C111.528 36.92 114.952 37.976 117.8 40.088C120.648 42.2 122.552 45.08 123.512 48.728H114.488C113.816 47.32 112.856 46.248 111.608 45.512C110.392 44.776 109 44.408 107.432 44.408C104.904 44.408 102.856 45.288 101.288 47.048C99.72 48.808 98.936 51.16 98.936 54.104C98.936 57.048 99.72 59.4 101.288 61.16C102.856 62.92 104.904 63.8 107.432 63.8C109 63.8 110.392 63.432 111.608 62.696C112.856 61.96 113.816 60.888 114.488 59.48H123.512C122.552 63.128 120.648 66.008 117.8 68.12C114.952 70.2 111.528 71.24 107.528 71.24C104.264 71.24 101.336 70.52 98.744 69.08C96.184 67.608 94.184 65.576 92.744 62.984C91.304 60.392 90.584 57.432 90.584 54.104ZM144.475 71.336C141.307 71.336 138.395 70.6 135.739 69.128C133.115 67.656 131.019 65.608 129.451 62.984C127.914 60.328 127.146 57.352 127.146 54.056C127.146 50.76 127.914 47.8 129.451 45.176C131.019 42.552 133.115 40.504 135.739 39.032C138.395 37.56 141.307 36.824 144.475 36.824C147.643 36.824 150.539 37.56 153.163 39.032C155.819 40.504 157.899 42.552 159.403 45.176C160.939 47.8 161.707 50.76 161.707 54.056C161.707 57.352 160.939 60.328 159.403 62.984C157.867 65.608 155.787 67.656 153.163 69.128C150.539 70.6 147.643 71.336 144.475 71.336ZM144.475 63.848C147.163 63.848 149.307 62.952 150.906 61.16C152.539 59.368 153.355 57 153.355 54.056C153.355 51.08 152.539 48.712 150.906 46.952C149.307 45.16 147.163 44.264 144.475 44.264C141.755 44.264 139.579 45.144 137.947 46.904C136.347 48.664 135.547 51.048 135.547 54.056C135.547 57.032 136.347 59.416 137.947 61.208C139.579 62.968 141.755 63.848 144.475 63.848ZM186.913 71L180.049 60.68L174.001 71H164.689L175.489 53.864L164.449 37.304H174.001L180.769 47.48L186.721 37.304H196.033L185.329 54.296L196.465 71H186.913ZM208.793 37.304V71H200.585V37.304H208.793ZM244.886 71H236.678L222.95 50.216V71H214.742V37.304H222.95L236.678 58.184V37.304H244.886V71ZM280.019 37.304V71H271.811V57.128H259.043V71H250.835V37.304H259.043V50.504H271.811V37.304H280.019ZM306.921 65.048H294.345L292.329 71H283.737L295.929 37.304H305.433L317.625 71H308.937L306.921 65.048ZM304.809 58.712L300.633 46.376L296.505 58.712H304.809Z" fill="black"/>
</svg>
